<svg width="48" height="48" viewBox="0 0 48 48" fill="none" xmlns="http://www.w3.org/2000/svg">
<path d="M25.0221 14C26.8221 14 27.2021 14.02 28.1221 14.06C29.1821 14.11 29.9121 14.28 30.5421 14.53C31.2021 14.78 31.7621 15.13 32.3121 15.68C32.8721 16.23 33.2121 16.79 33.4721 17.45C33.7221 18.08 33.8821 18.81 33.9321 19.88C33.9821 20.83 33.9921 21.2 33.9921 23.2V24.8C33.9921 26.8 33.9821 27.17 33.9321 28.12C33.9164 28.9468 33.7609 29.7651 33.4721 30.54C33.2121 31.2 32.8721 31.76 32.3221 32.31C31.7621 32.87 31.2021 33.21 30.5421 33.47C29.9121 33.72 29.1821 33.88 28.1221 33.93C27.1721 33.98 26.7921 33.99 24.7921 33.99H23.2021C21.2021 33.99 20.8321 33.98 19.8721 33.93C19.0453 33.9141 18.2271 33.7586 17.4521 33.47C16.7857 33.2195 16.1818 32.8271 15.6821 32.32C15.1699 31.8186 14.7739 31.211 14.5221 30.54C14.2337 29.765 14.0782 28.9468 14.0621 28.12C14.0131 27.0874 13.9931 26.0537 14.0021 25.02V22.97C14.0021 21.17 14.0221 20.79 14.0621 19.87C14.1121 18.81 14.2821 18.08 14.5221 17.45C14.7821 16.79 15.1221 16.23 15.6821 15.68C16.1773 15.1674 16.7825 14.7742 17.4521 14.53C18.2266 14.2382 19.0447 14.0793 19.8721 14.06C20.7921 14.02 21.1721 14 22.9721 14H25.0221ZM25.0421 15.8H22.9521C21.2221 15.8 20.8521 15.82 19.9521 15.86C18.9821 15.9 18.4521 16.06 18.1021 16.2C17.6321 16.38 17.3021 16.6 16.9521 16.95C16.6021 17.3 16.3821 17.63 16.2021 18.1C16.0721 18.45 15.9021 18.98 15.8621 19.96C15.8221 20.86 15.8021 21.22 15.8021 22.96V25.04C15.8021 26.78 15.8221 27.14 15.8621 28.04C15.9021 29.01 16.0621 29.54 16.2021 29.89C16.3821 30.36 16.6021 30.69 16.9521 31.04C17.3021 31.39 17.6321 31.61 18.1021 31.79C18.4521 31.93 18.9821 32.09 19.9621 32.13C20.9321 32.18 21.2821 32.19 23.4421 32.19H24.5521C26.7221 32.19 27.0621 32.18 28.0421 32.13C29.0121 32.09 29.5421 31.93 29.8921 31.79C30.3621 31.61 30.6921 31.39 31.0421 31.04C31.3921 30.69 31.6121 30.36 31.7921 29.89C31.9321 29.54 32.0921 29.01 32.1321 28.04C32.1821 27.06 32.1921 26.72 32.1921 24.55V23.45C32.1921 21.28 32.1821 20.93 32.1321 19.95C32.0921 18.98 31.9321 18.45 31.7921 18.1C31.6312 17.6654 31.3749 17.2725 31.0421 16.95C30.7199 16.6169 30.3268 16.3606 29.8921 16.2C29.299 15.9832 28.6735 15.8682 28.0421 15.86C27.0429 15.8123 26.0425 15.7923 25.0421 15.8V15.8ZM24.0021 18.86C25.364 18.86 26.6701 19.401 27.6331 20.364C28.5961 21.327 29.1371 22.6331 29.1371 23.995C29.1371 25.3569 28.5961 26.663 27.6331 27.626C26.6701 28.589 25.364 29.13 24.0021 29.13C22.6402 29.13 21.3341 28.589 20.3711 27.626C19.4081 26.663 18.8671 25.3569 18.8671 23.995C18.8671 22.6331 19.4081 21.327 20.3711 20.364C21.3341 19.401 22.6402 18.86 24.0021 18.86V18.86ZM24.0021 20.66C23.1176 20.66 22.2693 21.0114 21.6439 21.6368C21.0185 22.2622 20.6671 23.1105 20.6671 23.995C20.6671 24.8795 21.0185 25.7278 21.6439 26.3532C22.2693 26.9786 23.1176 27.33 24.0021 27.33C24.8866 27.33 25.7349 26.9786 26.3603 26.3532C26.9857 25.7278 27.3371 24.8795 27.3371 23.995C27.3371 23.1105 26.9857 22.2622 26.3603 21.6368C25.7349 21.0114 24.8866 20.66 24.0021 20.66V20.66ZM29.3321 17.46C29.6504 17.46 29.9556 17.5864 30.1806 17.8115C30.4057 18.0365 30.5321 18.3417 30.5321 18.66C30.5321 18.9783 30.4057 19.2835 30.1806 19.5085C29.9556 19.7336 29.6504 19.86 29.3321 19.86C29.0138 19.86 28.7086 19.7336 28.4836 19.5085C28.2585 19.2835 28.1321 18.9783 28.1321 18.66C28.1321 18.3417 28.2585 18.0365 28.4836 17.8115C28.7086 17.5864 29.0138 17.46 29.3321 17.46V17.46Z" fill="white"/>
<path d="M24 47.5C11.0209 47.5 0.5 36.9791 0.5 24C0.5 11.0209 11.0209 0.5 24 0.5C36.9791 0.5 47.5 11.0209 47.5 24C47.5 36.9791 36.9791 47.5 24 47.5Z" stroke="#666666"/>
</svg>
