<svg width="48" height="48" viewBox="0 0 48 48" fill="none" xmlns="http://www.w3.org/2000/svg">
<path d="M23.9646 14C21.6401 14.0082 19.391 14.826 17.6041 16.3128C15.8172 17.7995 14.6041 19.8623 14.1733 22.1466C13.7424 24.4309 14.1209 26.7939 15.2435 28.8293C16.3661 30.8648 18.1628 32.4456 20.3246 33.3C20.2246 32.51 20.1546 31.3 20.3546 30.43L21.5246 25.46C21.5246 25.46 21.2246 24.86 21.2246 23.98C21.2246 22.59 22.0346 21.56 23.0446 21.56C23.8946 21.56 24.3146 22.2 24.3146 22.96C24.3146 23.82 23.7646 25.1 23.4746 26.29C23.2346 27.29 23.9746 28.1 24.9646 28.1C26.7446 28.1 28.1046 26.23 28.1046 23.53C28.1046 21.13 26.3846 19.47 23.9246 19.47C23.3402 19.4443 22.7566 19.5373 22.2092 19.7434C21.6617 19.9495 21.1616 20.2644 20.7392 20.669C20.3168 21.0737 19.9808 21.5598 19.7514 22.0979C19.522 22.636 19.404 23.215 19.4046 23.8C19.4046 24.66 19.7346 25.58 20.1446 26.08C20.2246 26.18 20.2346 26.27 20.2046 26.37L19.9246 27.5C19.8846 27.68 19.7746 27.73 19.5946 27.64C18.3346 27.05 17.5546 25.24 17.5546 23.76C17.5546 20.61 19.8546 17.72 24.1746 17.72C27.6346 17.72 30.3446 20.18 30.3446 23.49C30.3446 26.94 28.1646 29.71 25.1446 29.71C24.1446 29.71 23.1846 29.18 22.8646 28.56L22.2346 30.93C21.9394 31.8577 21.5225 32.7421 20.9946 33.56C22.3684 33.9816 23.817 34.1021 25.2416 33.9133C26.6662 33.7245 28.0333 33.2309 29.25 32.4661C30.4666 31.7014 31.5041 30.6833 32.2918 29.4814C33.0796 28.2795 33.599 26.9219 33.8147 25.5011C34.0304 24.0804 33.9374 22.6298 33.542 21.2482C33.1465 19.8666 32.458 18.5865 31.5232 17.4951C30.5884 16.4036 29.4294 15.5264 28.125 14.9233C26.8207 14.3202 25.4016 14.0053 23.9646 14V14Z" fill="white"/>
<path d="M24 47.5C11.0209 47.5 0.5 36.9791 0.5 24C0.5 11.0209 11.0209 0.5 24 0.5C36.9791 0.5 47.5 11.0209 47.5 24C47.5 36.9791 36.9791 47.5 24 47.5Z" stroke="#666666"/>
</svg>
